<?xml version="1.0" encoding="utf-8"?>
<svg version="1.1" id="ITRK" xmlns="http://www.w3.org/2000/svg" xmlns:xlink="http://www.w3.org/1999/xlink" x="0px" y="0px"
     width="300px" height="300px" viewBox="0 0 300 300" style="enable-background:new 0 0 300 300;" xml:space="preserve">
<g>
	<path style="fill:#9E9E9E;" d="M98.2,169.9c15,15.6,66.4,9,47.6-15.1c-10.7-13.8-7.3-23.2-4.6-35.1c9.1-37.9,63.8-107,51.6-114
		s-71.7,73.5-90.2,105.6C84.1,143.3,88.5,159.8,98.2,169.9"/>
    <path style="fill:#EF7D00;" d="M201.9,129.9c-15-15.6-66.4-9-47.6,15.1c10.7,13.8,7.3,23.2,4.6,35.3c-9.1,37.9-63.8,107-51.6,114
		c12.2,7.1,71.7-73.5,90.2-105.6C215.9,156.5,211.6,140.1,201.9,129.9"/>
</g>
</svg>
