<?xml version="1.0" encoding="utf-8"?>
<!-- Generator: $$$/GeneralStr/196=Adobe Illustrator 27.6.0, SVG Export Plug-In . SVG Version: 6.00 Build 0)  -->
<svg version="1.1" id="Ebene_1" xmlns="http://www.w3.org/2000/svg" xmlns:xlink="http://www.w3.org/1999/xlink" x="0px" y="0px"
	 width="89px" height="160.6px" viewBox="0 0 89 160.6" style="enable-background:new 0 0 89 160.6;" xml:space="preserve">
<style type="text/css">
	.st0{enable-background:new    ;}
	.st1{fill:#2F2F2F;}
</style>
<g class="st0">
	<path class="st1" d="M81.4,116c1.8,3.4,2.7,7.5,2.7,12.2c0,9.7-4,17.5-12.1,23.4c-8.1,5.9-18.8,8.9-32.2,8.9
		c-14.3,0-27.1-3.7-38.2-11.2l9.3-16.5c8.6,5.3,18,8,28.3,8c5.8,0,10.3-1,13.7-3c3.4-2,5.1-4.7,5.1-8.2c0-3-0.6-5.3-1.9-7.1
		c-1.3-1.8-3.7-3.5-7.2-5.2c-3.5-1.7-9-3.7-16.5-6.1c-11.3-3.5-19.5-7.6-24.7-12.1C2.6,94.7,0,88.3,0,80c0-5.3,1.5-10.2,4.5-14.7
		c3-4.4,7.1-8.1,12.1-11.1c-3.9-2.8-6.8-6-8.7-9.5C6.2,41.2,5.3,37,5.3,32.1c0-9.7,3.9-17.5,11.7-23.3C24.8,2.9,35.1,0,47.9,0
		c14.8,0,27.6,3.9,38.6,11.6l-9.3,15.8c-9-5.5-18.4-8.2-28.3-8.2c-5.8,0-10.2,1-13.2,3.1c-3,2-4.5,4.9-4.5,8.5c0,2.8,0.6,5.1,1.9,7
		c1.3,1.8,3.7,3.6,7.2,5.4c3.5,1.8,8.9,3.8,16,6c11.3,3.7,19.5,7.9,24.8,12.7c5.3,4.8,7.9,11.1,7.9,19c0,5.3-1.5,10.2-4.4,14.6
		c-3,4.4-6.9,8.1-11.8,11.2C76.7,109.5,79.6,112.7,81.4,116z M57.8,98.7c2.2-2.2,4-4.6,5.2-7.2c1.2-2.5,1.8-4.9,1.8-7.2
		c0-2.8-0.6-5.2-1.8-7.2c-1.2-2-3.3-3.8-6.4-5.4c-3.1-1.6-7.6-3.5-13.5-5.6c-3.9-1.3-8-2.7-12.2-4.4c-2,2.3-3.5,4.7-4.6,7.3
		c-1.1,2.6-1.7,5-1.7,7.1c0,4.4,1.3,7.7,3.8,9.9c2.5,2.3,7.3,4.6,14.3,7L57.8,98.7z"/>
</g>
</svg>
